<?xml version="1.0" standalone="no"?>
<!DOCTYPE svg PUBLIC "-//W3C//DTD SVG 20010904//EN"
 "http://www.w3.org/TR/2001/REC-SVG-20010904/DTD/svg10.dtd">
<svg version="1.0" xmlns="http://www.w3.org/2000/svg"
 width="700.000000pt" height="700.000000pt" viewBox="0 0 700.000000 700.000000"
 preserveAspectRatio="xMidYMid meet">
<metadata>
Created by potrace 1.11, written by Peter Selinger 2001-2013
</metadata>
<g transform="translate(0.000000,700.000000) scale(0.100000,-0.100000)"
fill="#000000" stroke="none">
<path d="M6330 3375 l0 -3375 300 0 300 0 0 3375 0 3375 -300 0 -300 0 0
-3375z"/>
<path d="M5545 2985 l0 -2985 300 2 300 3 1 2983 0 2982 -301 0 -300 0 0
-2985z"/>
<path d="M4764 5191 c-2 -2 -4 -1171 -4 -2598 l0 -2593 301 2 301 3 0 2588 c0
1424 -3 2591 -6 2594 -7 7 -585 11 -592 4z"/>
<path d="M3978 4406 c-2 -6 -4 -999 -3 -2206 l0 -2195 301 -3 302 -2 -2 2207
-1 2208 -297 1 c-208 1 -298 -2 -300 -10z"/>
<path d="M3190 1820 l0 -1820 299 0 c230 0 300 3 303 13 2 6 3 824 3 1817 l-1
1805 -302 2 -302 2 0 -1819z"/>
<path d="M2440 2862 l-35 -3 2 -1407 c1 -774 2 -1417 2 -1429 l1 -23 300 0
300 0 0 1430 0 1430 -57 0 c-32 1 -152 2 -268 3 -115 1 -226 1 -245 -1z"/>
<path d="M1625 2080 c-1 -3 -2 -472 -2 -1042 l0 -1038 301 0 301 0 0 1042 0
1043 -298 0 c-164 0 -300 -2 -302 -5z"/>
<path d="M840 1165 c0 -80 0 -363 0 -630 0 -267 0 -496 0 -510 l0 -25 300 0
300 0 0 23 c1 28 1 1130 0 1219 l0 66 -300 1 -300 0 0 -144z"/>
<path d="M55 268 l0 -263 301 -3 302 -2 0 265 -1 265 -301 0 -301 0 0 -262z"/>
</g>
</svg>
